<svg width="53" height="52" viewBox="0 0 53 52" fill="none" xmlns="http://www.w3.org/2000/svg">
<rect x="0.333313" width="52" height="52" rx="26" fill="#E49A49"/>
<path d="M26.3333 28.5L27.625 25.625L30.5 24.3334L27.625 23.0417L26.3333 20.1667L25.0417 23.0417L22.1667 24.3334L25.0417 25.625L26.3333 28.5ZM18 34.3334V19.3334C18 18.875 18.1633 18.4825 18.49 18.1559C18.8161 17.8297 19.2083 17.6667 19.6667 17.6667H33C33.4583 17.6667 33.8508 17.8297 34.1775 18.1559C34.5036 18.4825 34.6667 18.875 34.6667 19.3334V29.3334C34.6667 29.7917 34.5036 30.1842 34.1775 30.5109C33.8508 30.837 33.4583 31 33 31H21.3333L18 34.3334Z" fill="#1A1A1A"/>
</svg>
