<svg width="53" height="52" viewBox="0 0 53 52" fill="none" xmlns="http://www.w3.org/2000/svg">
<rect x="0.666626" width="52" height="52" rx="26" fill="#E49A49"/>
<path d="M25.8333 17.6667L31.915 19.5667C32.0846 19.6196 32.2328 19.7254 32.3381 19.8686C32.4433 20.0118 32.5 20.1848 32.5 20.3625V21.8334H34.1666C34.3876 21.8334 34.5996 21.9212 34.7559 22.0774C34.9122 22.2337 35 22.4457 35 22.6667V24.3334H24.1666V22.6667C24.1666 22.4457 24.2544 22.2337 24.4107 22.0774C24.567 21.9212 24.7789 21.8334 25 21.8334H30.8333V20.975L25.8333 19.4117L20.8333 20.975V27.145C20.8332 27.6552 20.9502 28.1586 21.1753 28.6165C21.4004 29.0743 21.7275 29.4744 22.1316 29.7859L22.2891 29.8992L25.8333 32.3167L28.985 30.1667H25C24.7789 30.1667 24.567 30.0789 24.4107 29.9226C24.2544 29.7663 24.1666 29.5544 24.1666 29.3334V26H35V29.3334C35 29.5544 34.9122 29.7663 34.7559 29.9226C34.5996 30.0789 34.3876 30.1667 34.1666 30.1667L31.4833 30.1675C31.1608 30.5925 30.7691 30.9675 30.3166 31.2759L25.8333 34.3334L21.35 31.2767C20.6771 30.8179 20.1264 30.2017 19.7459 29.4816C19.3654 28.7616 19.1665 27.9594 19.1666 27.145V20.3625C19.1667 20.185 19.2235 20.0121 19.3288 19.8691C19.434 19.7261 19.5821 19.6204 19.7516 19.5675L25.8333 17.6667Z" fill="#1A1A1A"/>
</svg>
