<svg width="18" height="18" viewBox="0 0 18 18" fill="none" xmlns="http://www.w3.org/2000/svg">
<path d="M0.670001 17.3333L1.79667 13.1933C1.05428 11.9207 0.664248 10.4733 0.666668 8.99999C0.666668 4.39749 4.3975 0.666656 9 0.666656C13.6025 0.666656 17.3333 4.39749 17.3333 8.99999C17.3333 13.6025 13.6025 17.3333 9 17.3333C7.52732 17.3357 6.08055 16.946 4.80833 16.2042L0.670001 17.3333ZM5.9925 5.08999C5.88489 5.09667 5.77973 5.12502 5.68333 5.17332C5.59294 5.22451 5.51041 5.28851 5.43833 5.36332C5.33833 5.45749 5.28167 5.53916 5.22083 5.61832C4.91284 6.01915 4.74718 6.51117 4.75 7.01666C4.75167 7.42499 4.85833 7.82249 5.025 8.19416C5.36583 8.94582 5.92667 9.74166 6.6675 10.4792C6.84583 10.6567 7.02 10.835 7.2075 11.0008C8.12699 11.8104 9.22271 12.3942 10.4075 12.7058L10.8817 12.7783C11.0358 12.7867 11.19 12.775 11.345 12.7675C11.5877 12.755 11.8247 12.6892 12.0392 12.575C12.1483 12.5188 12.2548 12.4576 12.3583 12.3917C12.3583 12.3917 12.3942 12.3683 12.4625 12.3167C12.575 12.2333 12.6442 12.1742 12.7375 12.0767C12.8067 12.005 12.8667 11.9208 12.9125 11.825C12.9775 11.6892 13.0425 11.43 13.0692 11.2142C13.0892 11.0492 13.0833 10.9592 13.0808 10.9033C13.0775 10.8142 13.0033 10.7217 12.9225 10.6825L12.4375 10.465C12.4375 10.465 11.7125 10.1492 11.27 9.94749C11.2233 9.92715 11.1733 9.91557 11.1225 9.91332C11.0655 9.90747 11.0079 9.91388 10.9535 9.93214C10.8992 9.95039 10.8494 9.98006 10.8075 10.0192V10.0175C10.8033 10.0175 10.7475 10.065 10.145 10.795C10.1104 10.8415 10.0628 10.8766 10.0082 10.8959C9.95355 10.9152 9.89443 10.9178 9.83833 10.9033C9.78404 10.8888 9.73085 10.8704 9.67917 10.8483C9.57583 10.805 9.54 10.7883 9.46917 10.7575L9.465 10.7558C8.98826 10.5477 8.54685 10.2665 8.15667 9.92249C8.05167 9.83082 7.95417 9.73082 7.85417 9.63416C7.52632 9.32019 7.2406 8.965 7.00417 8.57749L6.955 8.49832C6.91969 8.44513 6.89113 8.38774 6.87 8.32749C6.83833 8.20499 6.92083 8.10666 6.92083 8.10666C6.92083 8.10666 7.12333 7.88499 7.2175 7.76499C7.29591 7.66526 7.36906 7.56151 7.43667 7.45416C7.535 7.29582 7.56583 7.13332 7.51417 7.00749C7.28083 6.43749 7.03917 5.86999 6.79083 5.30666C6.74167 5.19499 6.59583 5.11499 6.46333 5.09916C6.41833 5.09416 6.37333 5.08916 6.32833 5.08582C6.21642 5.08026 6.10428 5.08138 5.9925 5.08916V5.08999Z" fill="#1A1A1A"/>
</svg>
