<svg width="104" height="36" viewBox="0 0 104 36" fill="none" xmlns="http://www.w3.org/2000/svg">
<rect x="0.948242" width="103" height="36" rx="8" fill="#3C7D46"/>
<path d="M20.7735 16.0696C20.6907 15.8011 20.5763 15.5608 20.4305 15.3487C20.288 15.1333 20.1156 14.9493 19.9134 14.7969C19.7146 14.6444 19.4859 14.5301 19.2274 14.4538C18.9688 14.3743 18.6871 14.3345 18.3822 14.3345C17.8353 14.3345 17.3481 14.4721 16.9205 14.7472C16.493 15.0223 16.1566 15.4266 15.9113 15.9602C15.6694 16.4905 15.5484 17.1368 15.5484 17.8991C15.5484 18.6681 15.6694 19.3194 15.9113 19.853C16.1533 20.3866 16.4897 20.7926 16.9205 21.071C17.3514 21.3461 17.8519 21.4837 18.422 21.4837C18.939 21.4837 19.3865 21.3842 19.7643 21.1854C20.1454 20.9865 20.4388 20.7048 20.6443 20.3402C20.8498 19.9723 20.9525 19.5414 20.9525 19.0476L21.3701 19.1122H18.6059V17.6705H22.7373V18.8935C22.7373 19.7652 22.5517 20.5192 22.1805 21.1555C21.8093 21.7919 21.2989 22.2824 20.6492 22.6271C19.9996 22.9685 19.2539 23.1392 18.412 23.1392C17.474 23.1392 16.6504 22.9287 15.9411 22.5078C15.2352 22.0836 14.6833 21.482 14.2856 20.7031C13.8912 19.9209 13.694 18.9929 13.694 17.919C13.694 17.0971 13.81 16.3629 14.042 15.7166C14.2773 15.0703 14.6054 14.5218 15.0264 14.071C15.4473 13.617 15.9411 13.2723 16.5079 13.0369C17.0747 12.7983 17.6911 12.679 18.3573 12.679C18.9208 12.679 19.4461 12.7618 19.9333 12.9276C20.4205 13.09 20.8531 13.322 21.2309 13.6236C21.6121 13.9252 21.9253 14.2831 22.1705 14.6974C22.4158 15.1117 22.5766 15.5691 22.6528 16.0696H20.7735ZM27.822 23.1491C27.0564 23.1491 26.3952 22.9901 25.8383 22.6719C25.2848 22.3504 24.8589 21.8963 24.5606 21.3097C24.2623 20.7197 24.1132 20.0253 24.1132 19.2266C24.1132 18.4411 24.2623 17.7517 24.5606 17.1584C24.8622 16.5618 25.2832 16.0978 25.8234 15.7663C26.3637 15.4316 26.9984 15.2642 27.7275 15.2642C28.1982 15.2642 28.6423 15.3404 29.0599 15.4929C29.4809 15.642 29.8521 15.8741 30.1736 16.1889C30.4984 16.5038 30.7536 16.9048 30.9392 17.392C31.1248 17.8759 31.2176 18.4527 31.2176 19.1222V19.674H24.9584V18.4609H29.4925C29.4891 18.1162 29.4146 17.8097 29.2687 17.5412C29.1229 17.2694 28.9191 17.0556 28.6572 16.8999C28.3987 16.7441 28.0971 16.6662 27.7524 16.6662C27.3845 16.6662 27.0613 16.7557 26.7829 16.9347C26.5045 17.1103 26.2874 17.3423 26.1317 17.6307C25.9792 17.9157 25.9013 18.2289 25.898 18.5703V19.6293C25.898 20.0734 25.9792 20.4545 26.1416 20.7727C26.304 21.0876 26.531 21.3295 26.8227 21.4986C27.1144 21.6643 27.4558 21.7472 27.8469 21.7472C28.1087 21.7472 28.3457 21.7107 28.5578 21.6378C28.7699 21.5616 28.9539 21.4505 29.1096 21.3047C29.2654 21.1589 29.3831 20.9782 29.4626 20.7628L31.143 20.9517C31.037 21.3958 30.8348 21.7836 30.5365 22.1151C30.2415 22.4432 29.8637 22.6984 29.403 22.8807C28.9423 23.0597 28.4153 23.1491 27.822 23.1491ZM36.5534 15.3636V16.7557H32.1634V15.3636H36.5534ZM33.2472 13.5341H35.047V20.7031C35.047 20.9451 35.0834 21.1307 35.1563 21.2599C35.2326 21.3859 35.332 21.4721 35.4546 21.5185C35.5773 21.5649 35.7132 21.5881 35.8623 21.5881C35.975 21.5881 36.0777 21.5798 36.1705 21.5632C36.2667 21.5466 36.3396 21.5317 36.3893 21.5185L36.6926 22.9254C36.5964 22.9586 36.4589 22.995 36.2799 23.0348C36.1043 23.0746 35.8888 23.0978 35.6336 23.1044C35.1829 23.1177 34.7768 23.0497 34.4156 22.9006C34.0543 22.7481 33.7676 22.5128 33.5555 22.1946C33.3467 21.8764 33.2439 21.4787 33.2472 21.0014V13.5341ZM43.7286 23.1541C43.2447 23.1541 42.8089 23.0679 42.4211 22.8956C42.0366 22.7199 41.7317 22.4614 41.5063 22.12C41.2842 21.7786 41.1732 21.3577 41.1732 20.8572C41.1732 20.4264 41.2528 20.0701 41.4118 19.7884C41.5709 19.5066 41.788 19.2812 42.0631 19.1122C42.3382 18.9432 42.6481 18.8156 42.9928 18.7294C43.3408 18.6399 43.7004 18.5753 44.0716 18.5355C44.5191 18.4891 44.882 18.4477 45.1604 18.4112C45.4388 18.3714 45.641 18.3118 45.767 18.2322C45.8962 18.1494 45.9608 18.0218 45.9608 17.8494V17.8196C45.9608 17.4451 45.8498 17.1551 45.6278 16.9496C45.4057 16.7441 45.0858 16.6413 44.6682 16.6413C44.2274 16.6413 43.8778 16.7375 43.6192 16.9297C43.364 17.1219 43.1917 17.349 43.1022 17.6108L41.4218 17.3722C41.5544 16.9081 41.7731 16.5204 42.078 16.2088C42.383 15.8939 42.7558 15.6586 43.1966 15.5028C43.6375 15.3438 44.1247 15.2642 44.6583 15.2642C45.0262 15.2642 45.3924 15.3073 45.757 15.3935C46.1216 15.4796 46.4547 15.6222 46.7563 15.821C47.0579 16.0166 47.2999 16.2834 47.4822 16.6214C47.6678 16.9595 47.7606 17.3821 47.7606 17.8892V23H46.0305V21.951H45.9708C45.8614 22.1631 45.7073 22.362 45.5084 22.5476C45.3129 22.7299 45.066 22.8774 44.7677 22.9901C44.4727 23.0994 44.1263 23.1541 43.7286 23.1541ZM44.1959 21.8317C44.5572 21.8317 44.8704 21.7604 45.1356 21.6179C45.4007 21.4721 45.6046 21.2798 45.7471 21.0412C45.8929 20.8026 45.9658 20.5424 45.9658 20.2607V19.3608C45.9095 19.4072 45.8134 19.4503 45.6775 19.4901C45.5449 19.5298 45.3957 19.5646 45.23 19.5945C45.0643 19.6243 44.9002 19.6508 44.7378 19.674C44.5754 19.6972 44.4346 19.7171 44.3153 19.7337C44.0468 19.7701 43.8065 19.8298 43.5944 19.9126C43.3823 19.9955 43.2149 20.1115 43.0922 20.2607C42.9696 20.4065 42.9083 20.5954 42.9083 20.8274C42.9083 21.1589 43.0293 21.4091 43.2712 21.5781C43.5132 21.7472 43.8214 21.8317 44.1959 21.8317ZM58.1388 25.8636V21.7969H58.0642C57.9714 21.9825 57.8372 22.1797 57.6615 22.3885C57.4858 22.594 57.2538 22.7696 56.9655 22.9155C56.6771 23.0613 56.3142 23.1342 55.8767 23.1342C55.2768 23.1342 54.7398 22.9801 54.2659 22.6719C53.7919 22.3636 53.4174 21.9162 53.1423 21.3295C52.8672 20.7429 52.7297 20.0303 52.7297 19.1918C52.7297 18.3433 52.8689 17.6274 53.1473 17.044C53.429 16.4574 53.8085 16.0149 54.2858 15.7166C54.7631 15.415 55.295 15.2642 55.8817 15.2642C56.3291 15.2642 56.697 15.3404 56.9854 15.4929C57.2737 15.642 57.5024 15.8227 57.6714 16.0348C57.8405 16.2436 57.9714 16.4408 58.0642 16.6264H58.1736V15.3636H59.9434V25.8636H58.1388ZM56.3788 21.6577C56.76 21.6577 57.0848 21.5549 57.3532 21.3494C57.6217 21.1406 57.8256 20.8506 57.9648 20.4794C58.104 20.1082 58.1736 19.6757 58.1736 19.1818C58.1736 18.688 58.104 18.2588 57.9648 17.8942C57.8289 17.5296 57.6267 17.2462 57.3582 17.044C57.0931 16.8419 56.7666 16.7408 56.3788 16.7408C55.9778 16.7408 55.643 16.8452 55.3746 17.054C55.1061 17.2628 54.9039 17.5511 54.768 17.919C54.6321 18.2869 54.5642 18.7079 54.5642 19.1818C54.5642 19.6591 54.6321 20.085 54.768 20.4595C54.9072 20.8307 55.1111 21.1241 55.3795 21.3395C55.6513 21.5516 55.9844 21.6577 56.3788 21.6577ZM66.6601 19.7884V15.3636H68.4598V23H66.7148V21.6428H66.6352C66.4629 22.0703 66.1795 22.42 65.7851 22.6918C65.394 22.9635 64.9117 23.0994 64.3383 23.0994C63.8379 23.0994 63.3954 22.9884 63.0109 22.7663C62.6298 22.541 62.3315 22.2145 62.116 21.7869C61.9006 21.3561 61.7929 20.8357 61.7929 20.2259V15.3636H63.5926V19.9474C63.5926 20.4313 63.7252 20.8158 63.9903 21.1009C64.2555 21.3859 64.6035 21.5284 65.0344 21.5284C65.2995 21.5284 65.5564 21.4638 65.805 21.3345C66.0535 21.2053 66.2574 21.013 66.4165 20.7578C66.5789 20.4993 66.6601 20.1761 66.6601 19.7884ZM73.6414 23.1491C72.8957 23.1491 72.2494 22.9851 71.7025 22.657C71.1556 22.3288 70.7314 21.8698 70.4298 21.2798C70.1315 20.6899 69.9823 20.0005 69.9823 19.2116C69.9823 18.4228 70.1315 17.7318 70.4298 17.1385C70.7314 16.5452 71.1556 16.0845 71.7025 15.7564C72.2494 15.4283 72.8957 15.2642 73.6414 15.2642C74.3872 15.2642 75.0335 15.4283 75.5803 15.7564C76.1272 16.0845 76.5498 16.5452 76.8481 17.1385C77.1497 17.7318 77.3005 18.4228 77.3005 19.2116C77.3005 20.0005 77.1497 20.6899 76.8481 21.2798C76.5498 21.8698 76.1272 22.3288 75.5803 22.657C75.0335 22.9851 74.3872 23.1491 73.6414 23.1491ZM73.6514 21.7074C74.0557 21.7074 74.3938 21.5964 74.6656 21.3743C74.9374 21.1489 75.1395 20.8473 75.2721 20.4695C75.408 20.0916 75.4759 19.6707 75.4759 19.2067C75.4759 18.7393 75.408 18.3168 75.2721 17.9389C75.1395 17.5578 74.9374 17.2545 74.6656 17.0291C74.3938 16.8037 74.0557 16.6911 73.6514 16.6911C73.2371 16.6911 72.8924 16.8037 72.6173 17.0291C72.3455 17.2545 72.1417 17.5578 72.0058 17.9389C71.8732 18.3168 71.8069 18.7393 71.8069 19.2067C71.8069 19.6707 71.8732 20.0916 72.0058 20.4695C72.1417 20.8473 72.3455 21.1489 72.6173 21.3743C72.8924 21.5964 73.2371 21.7074 73.6514 21.7074ZM82.6412 15.3636V16.7557H78.2513V15.3636H82.6412ZM79.3351 13.5341H81.1349V20.7031C81.1349 20.9451 81.1713 21.1307 81.2442 21.2599C81.3205 21.3859 81.4199 21.4721 81.5425 21.5185C81.6652 21.5649 81.801 21.5881 81.9502 21.5881C82.0629 21.5881 82.1656 21.5798 82.2584 21.5632C82.3546 21.5466 82.4275 21.5317 82.4772 21.5185L82.7805 22.9254C82.6843 22.9586 82.5468 22.995 82.3678 23.0348C82.1921 23.0746 81.9767 23.0978 81.7215 23.1044C81.2707 23.1177 80.8647 23.0497 80.5035 22.9006C80.1422 22.7481 79.8555 22.5128 79.6434 22.1946C79.4346 21.8764 79.3318 21.4787 79.3351 21.0014V13.5341ZM87.445 23.1491C86.6794 23.1491 86.0182 22.9901 85.4614 22.6719C84.9079 22.3504 84.482 21.8963 84.1837 21.3097C83.8854 20.7197 83.7362 20.0253 83.7362 19.2266C83.7362 18.4411 83.8854 17.7517 84.1837 17.1584C84.4853 16.5618 84.9062 16.0978 85.4465 15.7663C85.9867 15.4316 86.6214 15.2642 87.3506 15.2642C87.8212 15.2642 88.2654 15.3404 88.683 15.4929C89.1039 15.642 89.4751 15.8741 89.7966 16.1889C90.1214 16.5038 90.3766 16.9048 90.5622 17.392C90.7478 17.8759 90.8406 18.4527 90.8406 19.1222V19.674H84.5814V18.4609H89.1155C89.1122 18.1162 89.0376 17.8097 88.8918 17.5412C88.7459 17.2694 88.5421 17.0556 88.2803 16.8999C88.0218 16.7441 87.7201 16.6662 87.3754 16.6662C87.0075 16.6662 86.6844 16.7557 86.406 16.9347C86.1276 17.1103 85.9105 17.3423 85.7547 17.6307C85.6022 17.9157 85.5244 18.2289 85.521 18.5703V19.6293C85.521 20.0734 85.6022 20.4545 85.7646 20.7727C85.9271 21.0876 86.1541 21.3295 86.4458 21.4986C86.7374 21.6643 87.0788 21.7472 87.4699 21.7472C87.7317 21.7472 87.9687 21.7107 88.1808 21.6378C88.393 21.5616 88.5769 21.4505 88.7327 21.3047C88.8885 21.1589 89.0061 20.9782 89.0857 20.7628L90.7661 20.9517C90.66 21.3958 90.4578 21.7836 90.1595 22.1151C89.8646 22.4432 89.4867 22.6984 89.026 22.8807C88.5653 23.0597 88.0383 23.1491 87.445 23.1491Z" fill="white"/>
</svg>
