<svg width="52" height="52" viewBox="0 0 52 52" fill="none" xmlns="http://www.w3.org/2000/svg">
<rect width="52" height="52" rx="26" fill="#E49A49"/>
<path d="M32.6667 21H29.3333V19.3334C29.3333 18.8913 29.1577 18.4674 28.8452 18.1548C28.5326 17.8423 28.1087 17.6667 27.6667 17.6667H24.3333C23.4083 17.6667 22.6667 18.4084 22.6667 19.3334V21H19.3333C18.4083 21 17.6667 21.7417 17.6667 22.6667V31.8334C17.6667 32.2754 17.8423 32.6993 18.1548 33.0119C18.4674 33.3244 18.8913 33.5 19.3333 33.5H32.6667C33.1087 33.5 33.5326 33.3244 33.8452 33.0119C34.1577 32.6993 34.3333 32.2754 34.3333 31.8334V22.6667C34.3333 22.2247 34.1577 21.8007 33.8452 21.4882C33.5326 21.1756 33.1087 21 32.6667 21ZM24.3333 19.3334H27.6667V21H24.3333V19.3334ZM26 23.5C26.5525 23.5 27.0824 23.7195 27.4731 24.1102C27.8638 24.5009 28.0833 25.0308 28.0833 25.5834C28.0833 26.1359 27.8638 26.6658 27.4731 27.0565C27.0824 27.4472 26.5525 27.6667 26 27.6667C25.4475 27.6667 24.9176 27.4472 24.5269 27.0565C24.1362 26.6658 23.9167 26.1359 23.9167 25.5834C23.9167 25.0308 24.1362 24.5009 24.5269 24.1102C24.9176 23.7195 25.4475 23.5 26 23.5ZM30.1667 31.8334H21.8333V30.7917C21.8333 29.6417 23.7 28.7084 26 28.7084C28.3 28.7084 30.1667 29.6417 30.1667 30.7917V31.8334Z" fill="#1A1A1A"/>
</svg>
